<?xml version="1.0" encoding="UTF-8"?>
<svg width="26px" height="39px" viewBox="0 0 26 39" version="1.1" xmlns="http://www.w3.org/2000/svg" xmlns:xlink="http://www.w3.org/1999/xlink">
    <!-- Generator: Sketch 43.2 (39069) - http://www.bohemiancoding.com/sketch -->
    <title>note</title>
    <desc>Created with Sketch.</desc>
    <defs></defs>
    <g id="Page-1" stroke="none" stroke-width="1" fill="none" fill-rule="evenodd">
        <g id="log-view" transform="translate(-25.000000, -670.000000)" fill="#686868">
            <g id="note-to-self-log" transform="translate(0.000000, 612.000000)">
                <g id="note" transform="translate(25.000000, 58.000000)">
                    <g id="Shape">
                        <polygon fill-rule="nonzero" points="11.7 2.16666667 11.7 0 9.96666667 0 9.96666667 2.16666667 9.96666667 4.33333333 11.7 4.33333333"></polygon>
                        <polygon fill-rule="nonzero" points="20.3666667 2.16666667 20.3666667 0 18.6333333 0 18.6333333 2.16666667 18.6333333 4.33333333 20.3666667 4.33333333"></polygon>
                        <path d="M25.1333333,2.16666667 L25.1333333,4.33333333 L25.1333333,4.76666667 L24.7,4.76666667 L22.9666667,4.76666667 L22.5333333,4.76666667 L22.5333333,4.33333333 L22.5333333,2.16666667 L20.8,2.16666667 L20.8,4.33333333 L20.8,4.76666667 L20.3666667,4.76666667 L18.6333333,4.76666667 L18.2,4.76666667 L18.2,4.33333333 L18.2,2.16666667 L16.4666667,2.16666667 L16.4666667,4.33333333 L16.4666667,4.76666667 L16.0333333,4.76666667 L14.3,4.76666667 L13.8666667,4.76666667 L13.8666667,4.33333333 L13.8666667,2.16666667 L12.1333333,2.16666667 L12.1333333,4.33333333 L12.1333333,4.76666667 L11.7,4.76666667 L9.96666667,4.76666667 L9.53333333,4.76666667 L9.53333333,4.33333333 L9.53333333,2.16666667 L7.8,2.16666667 L7.8,4.33333333 L7.8,4.76666667 L7.36666667,4.76666667 L5.63333333,4.76666667 L5.2,4.76666667 L5.2,4.33333333 L5.2,2.16666667 L3.46666667,2.16666667 L3.46666667,4.33333333 L3.46666667,4.76666667 L3.03333333,4.76666667 L1.3,4.76666667 L0.866666667,4.76666667 L0.866666667,4.33333333 L0.866666667,2.16666667 L0,2.16666667 L0,39 L26,39 L26,2.16666667 L25.1333333,2.16666667 Z M24.2666667,37.2666667 L1.73333333,37.2666667 L1.73333333,6.5 L24.2666667,6.5 L24.2666667,37.2666667 Z" fill-rule="nonzero"></path>
                        <polygon fill-rule="nonzero" points="24.7 2.16666667 24.7 0 22.9666667 0 22.9666667 2.16666667 22.9666667 4.33333333 24.7 4.33333333"></polygon>
                        <polygon fill-rule="nonzero" points="3.03333333 2.16666667 3.03333333 0 1.3 0 1.3 2.16666667 1.3 4.33333333 3.03333333 4.33333333"></polygon>
                        <polygon fill-rule="nonzero" points="16.0333333 2.16666667 16.0333333 0 14.3 0 14.3 2.16666667 14.3 4.33333333 16.0333333 4.33333333"></polygon>
                        <polygon fill-rule="nonzero" points="7.36666667 2.16666667 7.36666667 0 5.63333333 0 5.63333333 2.16666667 5.63333333 4.33333333 7.36666667 4.33333333"></polygon>
                    </g>
                </g>
            </g>
        </g>
    </g>
</svg>